<?xml version="1.0" encoding="utf-8"?><svg viewBox="0 0 240 240" xmlns="http://www.w3.org/2000/svg" xmlns:xlink="http://www.w3.org/1999/xlink"><style>:root>svg{display:none}:root>svg:target{display:block}</style><svg viewBox="0 0 172 204" id="logo" xmlns="http://www.w3.org/2000/svg"><path d="M166 0H30A30 30 0 0 0 0 30v168a6.003 6.003 0 0 0 6 6h144a6.003 6.003 0 0 0 4.243-1.757 6.003 6.003 0 0 0 0-8.486A6.003 6.003 0 0 0 150 192H12v-2a18 18 0 0 1 18-18h136a6.003 6.003 0 0 0 4.243-1.757A6.003 6.003 0 0 0 172 166V6a6 6 0 0 0-6-6Zm-6 160H30a29.874 29.874 0 0 0-18 6V30a18 18 0 0 1 18-18h130v148Z"/></svg><svg viewBox="0 0 204 204" id="moon" xmlns="http://www.w3.org/2000/svg"><path d="M203.54 130.084a104.829 104.829 0 0 1-37 52.91 103.992 103.992 0 0 1-108.983 9.959A103.998 103.998 0 0 1 0 99.874a103.09 103.09 0 0 1 20.88-62.52 104.84 104.84 0 0 1 52.91-37 8 8 0 0 1 10 10 88.08 88.08 0 0 0 109.8 109.8 8.002 8.002 0 0 1 10.119 5.718 8.005 8.005 0 0 1-.119 4.282l-.05-.07Z"/></svg><svg viewBox="0 0 24 24" id="play" xmlns="http://www.w3.org/2000/svg"><path d="M8 5.14v14l11-7-11-7Z"/></svg><svg viewBox="0 0 15 15" id="search" xmlns="http://www.w3.org/2000/svg"><path d="m14.5 14.5-4-4m-4 2A6 6 0 1 1 6.5.499a6 6 0 0 1 0 12.001Z"/></svg><svg viewBox="0 0 240 240" id="sun" xmlns="http://www.w3.org/2000/svg"><path d="M112 32V8a8.001 8.001 0 0 1 16 0v24a8.001 8.001 0 0 1-13.657 5.657A8.001 8.001 0 0 1 112 32Zm8 24a64 64 0 1 0 64 64 64.07 64.07 0 0 0-64-64Zm-69.66 5.66a8.004 8.004 0 0 0 11.32-11.32l-16-16a8.004 8.004 0 0 0-11.32 11.32l16 16Zm0 116.68-16 16a8.004 8.004 0 1 0 11.32 11.32l16-16a8.002 8.002 0 0 0 0-11.32 8.005 8.005 0 0 0-11.32 0ZM184 64a8 8 0 0 0 5.66-2.34l16-16a8.005 8.005 0 0 0-11.32-11.32l-16 16A7.999 7.999 0 0 0 184 64Zm5.66 114.34a8.004 8.004 0 0 0-11.32 11.32l16 16a8.004 8.004 0 0 0 11.32-11.32l-16-16ZM40 120a8 8 0 0 0-8-8H8a8.001 8.001 0 0 0 0 16h24a8.001 8.001 0 0 0 8-8Zm80 80a8 8 0 0 0-8 8v24a8 8 0 1 0 16 0v-24a8 8 0 0 0-8-8Zm112-88h-24a8 8 0 1 0 0 16h24a8 8 0 1 0 0-16Z"/></svg></svg>